<svg xmlns="http://www.w3.org/2000/svg" width="218" height="95" fill="none" viewBox="0 0 218 95"><rect width="95" height="95" fill="#fff" rx="14.394"/><path fill="url(#paint0_linear)" fill-rule="evenodd" d="M25 25H30.7427C37.1642 25 42.3699 30.2676 42.3699 36.7656V46.0903C42.3699 49.2096 44.8689 51.7382 47.9515 51.7382C51.0341 51.7382 53.533 49.2096 53.533 46.0903V36.7656C53.533 30.2676 58.7387 25 65.1602 25H71V45.7263C71 58.58 60.7025 69 48 69C35.2975 69 25 58.58 25 45.7263V25Z" clip-rule="evenodd"/><path fill="url(#paint1_linear)" fill-rule="evenodd" d="M25 25H30.7427C37.1642 25 42.3699 30.2676 42.3699 36.7656V46.0903C42.3699 49.2096 44.8689 51.7382 47.9515 51.7382C51.0341 51.7382 53.533 49.2096 53.533 46.0903V36.7656C53.533 30.2676 58.7387 25 65.1602 25H71V45.7263C71 58.58 60.7025 69 48 69C35.2975 69 25 58.58 25 45.7263V25Z" clip-rule="evenodd"/><path fill="url(#paint2_linear)" fill-rule="evenodd" d="M25 25H30.7427C37.1642 25 42.3699 30.2676 42.3699 36.7656V46.0903C42.3699 49.2096 44.8689 51.7382 47.9515 51.7382C51.0341 51.7382 53.533 49.2096 53.533 46.0903V36.7656C53.533 30.2676 58.7387 25 65.1602 25H71V45.7263C71 58.58 60.7025 69 48 69C35.2975 69 25 58.58 25 45.7263V25Z" clip-rule="evenodd"/><path fill="url(#paint3_linear)" fill-rule="evenodd" d="M25 25H30.7427C37.1642 25 42.3699 30.2676 42.3699 36.7656V46.0903C42.3699 49.2096 44.8689 51.7382 47.9515 51.7382C51.0341 51.7382 53.533 49.2096 53.533 46.0903V36.7656C53.533 30.2676 58.7387 25 65.1602 25H71V45.7263C71 58.58 60.7025 69 48 69C35.2975 69 25 58.58 25 45.7263V25Z" clip-rule="evenodd"/><path fill="url(#paint4_linear)" fill-rule="evenodd" d="M48.9473 51.7251L51.7025 53.0293L57.0572 52.5341L59.4898 51.7251L62.3359 50.694L65.5328 47.936L68.1533 46.5934L69.3677 42.9878L69.8005 39.9816L70.4549 37.8212V34.2531L70.8535 30.972V28.3509C70.0844 33.7046 69.6334 34.9897 68.9003 36.5204C67.8008 38.8165 67.8008 38.8636 66.3166 40.9328C64.8325 43.002 64.0127 43.9932 61.7342 45.8635C59.4557 47.7339 58.5632 48.2696 56.0217 49.3365C54.3273 50.0479 52.5781 50.5922 50.774 50.9695L48.9473 51.7251Z" clip-rule="evenodd" opacity=".974"/><path fill="url(#paint5_linear)" fill-rule="evenodd" d="M25 25H30.7427C37.1642 25 42.3699 30.2676 42.3699 36.7656V46.0903C42.3699 49.2096 44.8689 51.7382 47.9515 51.7382C51.0341 51.7382 53.533 49.2096 53.533 46.0903V36.7656C53.533 30.2676 58.7387 25 65.1602 25H71V45.7263C71 58.58 60.7025 69 48 69C35.2975 69 25 58.58 25 45.7263V25Z" clip-rule="evenodd"/><path fill="url(#paint6_linear)" fill-rule="evenodd" d="M25 25H30.7427C37.1642 25 42.3699 30.2676 42.3699 36.7656V46.0412C42.3699 49.1876 44.8906 51.7382 48 51.7382C51.6553 51.7382 55.2598 50.8726 58.5253 49.2105L58.7791 49.0813C62.2017 47.3392 65.125 44.7372 67.2692 41.5244L67.2891 41.4944C69.4394 38.2724 70.6542 34.505 70.7955 30.6197L71 25V45.7263C71 58.58 60.7025 69 48 69C35.2975 69 25 58.58 25 45.7263V25Z" clip-rule="evenodd"/><path fill="url(#paint7_linear)" fill-rule="evenodd" d="M25 25H30.7427C37.1642 25 42.3699 30.2676 42.3699 36.7656V46.0412C42.3699 49.1876 44.8906 51.7382 48 51.7382C51.6553 51.7382 55.2598 50.8726 58.5253 49.2105L58.7791 49.0813C62.2017 47.3392 65.125 44.7372 67.2692 41.5244L67.2891 41.4944C69.4394 38.2724 70.6542 34.505 70.7955 30.6197L71 25V45.7263C71 58.58 60.7025 69 48 69C35.2975 69 25 58.58 25 45.7263V25Z" clip-rule="evenodd"/><mask id="mask0" width="46" height="44" x="25" y="25" mask-type="alpha" maskUnits="userSpaceOnUse"><path fill="url(#paint8_linear)" fill-rule="evenodd" d="M25 25H30.7427C37.1642 25 42.3699 30.2676 42.3699 36.7656V46.0412C42.3699 49.1876 44.8906 51.7382 48 51.7382C51.6553 51.7382 55.2598 50.8726 58.5253 49.2105L58.7791 49.0813C62.2017 47.3392 65.125 44.7372 67.2692 41.5244L67.2891 41.4944C69.4394 38.2724 70.6542 34.505 70.7955 30.6197L71 25V45.7263C71 58.58 60.7025 69 48 69C35.2975 69 25 58.58 25 45.7263V25Z" clip-rule="evenodd"/></mask><g mask="url(#mask0)"><path fill="url(#paint9_linear)" fill-rule="evenodd" d="M42.3479 42.8901L41.8824 46.2284L41.2444 51.8585L39.4955 53.8417L39.1113 56.8758L40.0884 61.0103L40.0809 63.9824L42.7044 66.7143L45.155 68.4692L46.7601 70.0401L49.902 71.66L52.6101 73.5089L54.9181 74.6989L53.0477 73.3731C51.9466 72.5927 50.9261 71.7018 50.0016 70.7142L49.411 70.0833C48.8825 69.5187 48.2547 69.0587 47.5597 68.7267C46.8851 68.4044 46.3603 67.83 46.0957 67.1242L45.8316 66.4194C45.3842 65.2261 45.155 63.9604 45.155 62.684L45.155 50.9669L44.1636 50.1692L43.2601 49.1219L43.0343 48.7233L42.9803 48.6106C42.9025 48.4481 42.83 48.2831 42.7629 48.1158C42.6958 47.9485 42.6375 47.7779 42.5881 47.6044L42.5808 47.579C42.5266 47.3887 42.4842 47.1952 42.454 46.9995L42.428 46.8315L42.3479 46.1483L42.3479 42.8901Z" clip-rule="evenodd" opacity=".5"/></g><path fill="url(#paint10_linear)" fill-rule="evenodd" d="M25 25H30.7427C37.1642 25 42.3699 30.2676 42.3699 36.7656V46.0412C42.3699 49.1876 44.8906 51.7382 48 51.7382C51.6553 51.7382 55.2598 50.8726 58.5253 49.2105L58.7791 49.0813C62.2017 47.3392 65.125 44.7372 67.2692 41.5244L67.2891 41.4944C69.4394 38.2724 70.6542 34.505 70.7955 30.6197L71 25V45.7263C71 58.58 60.7025 69 48 69C35.2975 69 25 58.58 25 45.7263V25Z" clip-rule="evenodd"/><path fill="url(#paint11_linear)" fill-rule="evenodd" d="M25 25H30.7427C37.1642 25 42.3699 30.2676 42.3699 36.7656V39.6129V63.3029C42.3699 66.4493 44.8906 69 48 69C35.2975 69 25 58.58 25 45.7263V25Z" clip-rule="evenodd"/><path fill="url(#paint12_linear)" fill-rule="evenodd" d="M25 25H30.7427C37.1642 25 42.3699 30.2676 42.3699 36.7656V39.6129V63.3029C42.3699 66.4493 44.8906 69 48 69C35.2975 69 25 58.58 25 45.7263V25Z" clip-rule="evenodd"/><rect width="95" height="95" x="122.349" fill="#fff" rx="14.394"/><rect width="7" height="42" x="175" y="20" fill="#09EFBD" rx="1"/><rect width="7" height="26" x="166" y="44" fill="#09EFBD" rx="1"/><rect width="7" height="35" x="157" y="42" fill="#09EFBD" rx="1"/><rect width="7" height="15" x="184" y="47" fill="#09EFBD" rx="1"/><rect width="7" height="15" x="148" y="57" fill="#09EFBD" rx="1"/><defs><linearGradient id="paint0_linear" x1="48" x2="48" y1="25" y2="69" gradientUnits="userSpaceOnUse"><stop stop-color="#DEEDFF"/><stop offset="1" stop-color="#B2D4FD"/></linearGradient><linearGradient id="paint1_linear" x1="66.635" x2="65.229" y1="27.342" y2="52.646" gradientUnits="userSpaceOnUse"><stop stop-color="#00D6D9"/><stop offset="1" stop-color="#455CDA"/></linearGradient><linearGradient id="paint2_linear" x1="54.753" x2="64.281" y1="27.342" y2="40.776" gradientUnits="userSpaceOnUse"><stop stop-color="#00D6D9"/><stop offset="1" stop-color="#04CFD9" stop-opacity="0"/></linearGradient><linearGradient id="paint3_linear" x1="54.831" x2="57.924" y1="47" y2="50.963" gradientUnits="userSpaceOnUse"><stop stop-color="#3F66DA" stop-opacity="0"/><stop offset="1" stop-color="#2E2EAE"/></linearGradient><linearGradient id="paint4_linear" x1="57.384" x2="60.484" y1="42.743" y2="50.489" gradientUnits="userSpaceOnUse"><stop stop-color="#2D41B3" stop-opacity="0"/><stop offset="1" stop-color="#141E62"/></linearGradient><linearGradient id="paint5_linear" x1="44.976" x2="62.621" y1="35.523" y2="55.359" gradientUnits="userSpaceOnUse"><stop stop-color="#3F66DA" stop-opacity="0"/><stop offset="1" stop-color="#2436C1"/></linearGradient><linearGradient id="paint6_linear" x1="81.39" x2="65.05" y1="79.122" y2="37.727" gradientUnits="userSpaceOnUse"><stop stop-color="#706AE1"/><stop offset="1" stop-color="#4352ED"/></linearGradient><linearGradient id="paint7_linear" x1="112.705" x2="73.124" y1="27.342" y2="75.701" gradientUnits="userSpaceOnUse"><stop stop-color="#00D6D9"/><stop offset="1" stop-color="#0FC4DD" stop-opacity="0"/></linearGradient><linearGradient id="paint8_linear" x1="57.189" x2="43.252" y1="56.03" y2="65.196" gradientUnits="userSpaceOnUse"><stop stop-color="#3F4DDA" stop-opacity="0"/><stop offset="1" stop-color="#2736A4"/></linearGradient><linearGradient id="paint9_linear" x1="49.971" x2="41.993" y1="56.138" y2="56.175" gradientUnits="userSpaceOnUse"><stop stop-color="#2D41B3" stop-opacity="0"/><stop offset="1" stop-color="#141E62"/></linearGradient><linearGradient id="paint10_linear" x1="57.189" x2="43.252" y1="56.03" y2="65.196" gradientUnits="userSpaceOnUse"><stop stop-color="#3F4DDA" stop-opacity="0"/><stop offset="1" stop-color="#2736A4"/></linearGradient><linearGradient id="paint11_linear" x1="33.844" x2="47.677" y1="25" y2="55.47" gradientUnits="userSpaceOnUse"><stop stop-color="#00D6D9"/><stop offset="1" stop-color="#5272EE"/></linearGradient><linearGradient id="paint12_linear" x1="31.396" x2="42.039" y1="35.675" y2="51.701" gradientUnits="userSpaceOnUse"><stop stop-color="#00D6D9"/><stop offset="1" stop-color="#0FC4DD" stop-opacity="0"/></linearGradient></defs></svg>