<svg xmlns="http://www.w3.org/2000/svg" width="24" height="24" fill="none" viewBox="0 0 24 24"><path fill="#E8F9FE" fill-rule="evenodd" d="M12 24C18.6274 24 24 18.6274 24 12C24 5.37258 18.6274 0 12 0C5.37258 0 0 5.37258 0 12C0 18.6274 5.37258 24 12 24Z" clip-rule="evenodd"/><rect width="15.109" height=".8" x="4.076" y="18.632" fill="#83D8E4"/><rect width="13.798" height=".795" x="5.059" y="7.809" fill="#15B2C7"/><rect width="13.798" height=".795" x="4.733" y="17.937" fill="#15B2C7"/><path fill="#83D8E4" d="M19.5243 7.77826L11.7983 3.72192L4.07227 7.77826H19.5243Z"/><path fill="#15B2C7" d="M7.36035 7.10216L11.9631 4.73596L16.5658 7.10216H7.36035Z"/><path fill="#BAEEF6" d="M4.97754 8.6322V9.10997C4.97754 9.43245 5.24011 9.69524 5.56235 9.69524H7.5912C7.91344 9.69524 8.17601 9.43245 8.17601 9.10997V8.6322H4.97754Z"/><path fill="#BAEEF6" d="M8.17601 17.6043V17.1265C8.17601 16.804 7.91344 16.5413 7.5912 16.5413H5.56235C5.24011 16.5413 4.97754 16.804 4.97754 17.1265V17.6043H8.17601Z"/><rect width="2.301" height="6.085" x="5.43" y="10.144" fill="#15B2C7"/><path fill="#BAEEF6" d="M9.98535 8.6322V9.08797C9.98535 9.39561 10.2542 9.64629 10.5842 9.64629H12.6741C13.0041 9.64629 13.273 9.39561 13.273 9.08797V8.6322H9.98535Z"/><rect width="2.63" height="6.085" x="10.315" y="10.144" fill="#15B2C7"/><path fill="#BAEEF6" d="M13.2428 17.5553V17.0996C13.2428 16.7919 12.9729 16.5413 12.6416 16.5413H10.5562C10.225 16.5413 9.95508 16.7919 9.95508 17.0996V17.5553H13.2428Z"/><path fill="#BAEEF6" d="M14.9316 8.6322V9.08797C14.9316 9.39561 15.2005 9.64629 15.5305 9.64629H17.6204C17.9504 9.64629 18.2193 9.39561 18.2193 9.08797V8.6322H14.9316Z"/><path fill="#BAEEF6" d="M18.2193 17.5553V17.0996C18.2193 16.7919 17.9494 16.5413 17.6182 16.5413H15.5328C15.2015 16.5413 14.9316 16.7919 14.9316 17.0996V17.5553H18.2193Z"/><rect width="2.301" height="6.085" x="15.385" y="10.144" fill="#15B2C7"/></svg>