<svg xmlns="http://www.w3.org/2000/svg" width="24" height="24" fill="none" viewBox="0 0 24 24"><path fill="#E8F9FE" fill-rule="evenodd" d="M11.7867 23.5733C18.2963 23.5733 23.5733 18.2963 23.5733 11.7867C23.5733 5.27707 18.2963 0 11.7867 0C5.27707 0 0 5.27707 0 11.7867C0 18.2963 5.27707 23.5733 11.7867 23.5733Z" clip-rule="evenodd"/><path fill="#5DC8D8" fill-rule="evenodd" d="M11.6409 3.078L11.5273 3.46397V14.6638L11.6409 14.7771L16.8397 11.7041L11.6409 3.078Z" clip-rule="evenodd"/><path fill="#BAEEF7" fill-rule="evenodd" d="M11.6412 3.078L6.44238 11.7041L11.6412 14.7772V9.34112V3.078Z" clip-rule="evenodd"/><path fill="#5DC8D8" fill-rule="evenodd" d="M11.6411 15.7614L11.5771 15.8394V19.829L11.6411 20.016L16.8431 12.6899L11.6411 15.7614Z" clip-rule="evenodd"/><path fill="#BAEEF7" fill-rule="evenodd" d="M11.6412 20.016V15.7614L6.44238 12.6899L11.6412 20.016Z" clip-rule="evenodd"/><path fill="#08AEC5" fill-rule="evenodd" d="M11.6406 14.777L16.8394 11.7041L11.6406 9.34106V14.777Z" clip-rule="evenodd" opacity=".85"/><path fill="#5DC8D8" fill-rule="evenodd" d="M6.44238 11.7041L11.6411 14.777V9.34106L6.44238 11.7041Z" clip-rule="evenodd" opacity=".59"/></svg>